<svg id="Layer_2" data-name="Layer 2" xmlns="http://www.w3.org/2000/svg" viewBox="0 0 105.27 89.72">
    <g id="Layer_1-2" data-name="Layer 1">
        <g>
            <path d="M11.32,0h44.4c.94,0,1.81.18,2.31.34,4.15,1.29,5.99,3.15,7.68,6.28.36.67,1.19,2.75,1.15,5.24l-.04,7.05c0,1.36-1.11,2.47-2.47,2.47h-15.24c-3.16.15-5.21.77-7.64,2.28-.5.31-1.15.11-1.39-.42l-4.61-10.13c-1.49-2.36-3.58-1.03-4.27.62l-11.64,25.77c-.63,1.65.7,3.32,2.6,3.05,1.18-.17,1.58-1.2,2.15-2.31,1.02-2.18,1.89-4.34,2.82-6.47.15-.36.51-.58.89-.58h5.1c.61,0,1.05.55.95,1.15-.87,5.1-.37,10.41-.39,15.62,0,1.33-1.05,2.43-2.38,2.48h0c-.22,0-.43.09-.6.24-3.34,2.89-6.4,7.13-9.77,9.8-1.62,1.29-3.52,1.87-5.24.33-2.01-1.8-1.08-6.55-1.16-9.53-.01-.52-.45-.94-.98-.94h-2.77c-5.81-.02-10.79-5.45-10.79-11.24,0-9.65.09-19.82,0-29.37,0-.97.09-1.94.33-2.88C1.11,5.9,3.55.61,11.32,0Z"/>
            <path d="M29.62,28.51l3.67-8.19c.07-.16.31-.19.39-.03.64,1.37,2.99,6.43,3.42,7.31.23.53-.1.91-.45.91h-7.02Z"/>
            <path d="M93.81,25.91c-15.55,0-28.62.08-44.32.08-5.43.07-11.13,5.26-11.13,11.44v29.71c0,5.53,4.65,10.9,10.88,11.16l25.13.05,10.7,10.36c.7.68,1.65,1.07,2.62.99,1.03-.08,2-.57,2.66-1.48.16-.22.65-.93.67-1.64v-8.27h4.12c4.81.09,10.23-5.89,10.14-10.47v-31.41c.09-6.61-7.29-10.52-11.46-10.52ZM84.59,48.39c-.65.24-1.9.14-2.5.16-.58,4.85-2.83,9.68-6.36,13.04,1.6.85,3.46,1.18,5.24,1.44.95.14,1.61.15,2.57.75,2.24,1.4,1.03,4-1.68,3.95-3.48-.06-7.16-1.42-10.25-2.9-3.09,1.52-6.53,2.77-10.03,2.88-1.93.06-2.94-.97-3-2.21-.06-1.2,1.03-2.28,2.23-2.39,2.3-.22,4.51-.59,6.69-1.42-1.73-1.42-7.91-9.48-2.58-9.78,2.02-.11,2.08,1.59,2.93,2.86,1.04,1.54,2.12,3.21,3.73,4.22,3.11-2.4,5.46-6.45,5.72-10.44h-18.38c-1.47,0-1.45-1.4-1.47-2.11-.02-.79.28-2.34,1.47-2.34h10.25c0-1.54-.04-3.96.11-5.46.17-1.7,2.75-2.27,3.94-1.16.14.13.71.59.74,1.38v5.23h10.36c2.07,0,2.25,3.56.28,4.29Z"/>
        </g>
    </g>
</svg>
