<svg width="512" height="512" viewBox="0 0 512 512" fill="none" xmlns="http://www.w3.org/2000/svg">
    <path d="M0 256C0 114.615 114.615 0 256 0V0C397.385 0 512 114.615 512 256V256C512 397.385 397.385 512 256 512V512C114.615 512 0 397.385 0 256V256Z" fill="white"/>
    <path fill-rule="evenodd" clip-rule="evenodd" d="M4 256C4 395.176 116.824 508 256 508C395.176 508 508 395.176 508 256C508 116.824 395.176 4 256 4C116.824 4 4 116.824 4 256ZM256 0C114.615 0 0 114.615 0 256C0 397.385 114.615 512 256 512C397.385 512 512 397.385 512 256C512 114.615 397.385 0 256 0Z" fill="#EEEEEE"/>
    <path fill-rule="evenodd" clip-rule="evenodd" d="M333 231C359.51 231 381 209.51 381 183C381 156.49 359.51 135 333 135C306.49 135 285 156.49 285 183C285 209.51 306.49 231 333 231ZM328.233 184.56L335.102 191.348L333.047 196.865L324.636 188.454L311.114 201.977L307.273 198.136L321.039 184.56C317.658 180.8 314.954 176.635 312.98 172.227H318.389C320.038 175.445 322.121 178.501 324.636 181.287C328.53 176.96 331.397 172.011 333.209 166.791H303V161.409H321.932V156H327.34V161.409H346.272V166.818H338.348C336.319 173.361 332.896 179.386 328.314 184.478L328.233 184.56ZM344.92 177.636H350.329L362.499 210.09H357.09L354.034 201.977H341.188L338.159 210.09H332.75L344.92 177.636ZM347.624 184.857L343.243 196.568H352.006L347.624 184.857Z" fill="#3650DC"/>
    <path fill-rule="evenodd" clip-rule="evenodd" d="M339 261V240.244C342.41 239.895 345.785 239.244 349.087 238.295V361.919C349.087 366.117 347.419 370.144 344.45 373.113C341.481 376.082 337.454 377.75 333.256 377.75H153.832C149.633 377.75 145.606 376.082 142.637 373.113C139.668 370.144 138 366.117 138 361.919V182.495C138 178.296 139.668 174.269 142.637 171.3C145.606 168.331 149.633 166.663 153.832 166.663H277.455C276.668 169.404 276.087 172.19 275.713 175H155C151.686 175 149 177.686 149 181V211C149 214.314 151.686 217 155 217H286.501C286.634 217.181 286.768 217.36 286.904 217.539C288.932 220.225 291.184 222.72 293.631 225H155C151.686 225 149 227.686 149 231V261C149 264.314 151.686 267 155 267H333C336.314 267 339 264.314 339 261ZM336.987 365.65C337.977 364.66 338.533 363.318 338.533 361.919V330.256C338.533 328.856 337.977 327.514 336.987 326.524C335.997 325.534 334.655 324.978 333.256 324.978H153.832C152.432 324.978 151.09 325.534 150.1 326.524C149.11 327.514 148.554 328.856 148.554 330.256V361.919C148.554 363.318 149.11 364.66 150.1 365.65C151.09 366.64 152.432 367.196 153.832 367.196H333.256C334.655 367.196 335.997 366.64 336.987 365.65ZM155 275C151.686 275 149 277.686 149 281V311C149 314.314 151.686 317 155 317H333C336.314 317 339 314.314 339 311V281C339 277.686 336.314 275 333 275H155Z" fill="black"/>
</svg>
