<svg id="Layer_2" data-name="Layer 2" xmlns="http://www.w3.org/2000/svg" viewBox="0 0 221.65 167.1">
    <defs>
        <style>
            .cls-1 {
            fill: #fff;
            }
        </style>
    </defs>
    <g id="Translate_icons">
        <g>
            <g>
                <path class="cls-1" d="m26.81,167.1c-.75,0-1.5-.19-2.18-.56-1.5-.82-2.41-2.38-2.37-4.09l.51-24.06c-12.94-1.98-22.77-13.22-22.77-26.54v-42.38c0-14.8,12.04-26.84,26.84-26.84h75.88c14.8,0,26.84,12.04,26.84,26.84v42.38c0,14.8-12.04,26.84-26.84,26.84h-29.07c-2.08,0-4.09.61-5.81,1.77l-38.49,25.85c-.77.52-1.65.78-2.54.78Zm.03-116.47c-10.39,0-18.84,8.45-18.84,18.84v42.38c0,9.89,7.72,18.15,17.58,18.8,3,.2,5.29,2.71,5.23,5.71l-.41,19.62,32.99-22.16c3.05-2.05,6.6-3.13,10.27-3.13h29.07c10.39,0,18.84-8.45,18.84-18.84v-42.38c0-10.39-8.45-18.84-18.84-18.84H26.84Z"/>
                <path class="cls-1" d="m194.83,124.47c-.89,0-1.77-.26-2.54-.78l-38.49-25.86c-1.72-1.16-3.73-1.77-5.81-1.77h-26.34v-26.6c0-10.39-8.45-18.84-18.84-18.84h-10.73v-23.78c0-14.8,12.04-26.84,26.84-26.84h75.88c14.8,0,26.84,12.04,26.84,26.84v42.38c0,13.32-9.83,24.56-22.77,26.54l.51,24.06c.04,1.7-.87,3.27-2.37,4.09-.69.38-1.44.56-2.19.56Zm-65.18-36.4h18.34c3.67,0,7.23,1.08,10.27,3.13l32.98,22.16-.41-19.62c-.07-3,2.23-5.51,5.23-5.71,9.86-.65,17.58-8.91,17.58-18.8V26.84c0-10.39-8.45-18.84-18.84-18.84h-75.88c-10.39,0-18.84,8.45-18.84,18.84v15.78h2.73c14.8,0,26.84,12.04,26.84,26.84v18.6Z"/>
            </g>
            <path class="cls-1" d="m73.2,106.23h-16.91l-2.71,8h-11.55l16.39-45.29h12.77l16.39,45.29h-11.68l-2.71-8Zm-2.84-8.52l-5.61-16.58-5.55,16.58h11.16Z"/>
            <g>
                <rect class="cls-1" x="132.23" y="30.85" width="50" height="8"/>
                <path class="cls-1" d="m135.53,75.32l-2.27-7.67c34.89-10.31,34.31-31.67,34.27-32.57l7.99-.47c.07,1.16,1.33,28.51-39.99,40.72Z"/>
                <path class="cls-1" d="m172.31,72.7c-28.07-8.59-32.5-36.09-32.67-37.26l7.91-1.2c.15.97,3.95,23.72,27.1,30.8l-2.34,7.65Z"/>
                <rect class="cls-1" x="155" y="24.59" width="7" height="10.61" transform="translate(-.29 58.21) rotate(-20.79)"/>
            </g>
        </g>
    </g>
</svg>