<svg width="512" height="512" viewBox="0 0 512 512" fill="none" xmlns="http://www.w3.org/2000/svg">
<g>
<path d="M241.696 110C278.306 110 314.916 110 351.516 110C351.816 110.15 352.096 110.42 352.406 110.44C364.516 111.41 375.326 121.97 375.256 137.36C375.096 171.69 375.186 206.02 375.226 240.35C375.236 248.57 372.446 255.49 366.606 261.31C321.126 306.72 275.706 352.18 230.226 397.59C218.626 409.17 203.406 409.18 191.786 397.58C157.096 362.95 122.406 328.32 87.8764 293.52C84.7864 290.41 82.0464 286.44 80.5764 282.35C76.7364 271.66 80.1764 262.51 88.0264 254.67C131.986 210.79 175.946 166.9 219.796 122.89C226.056 116.61 232.456 111.01 241.696 110Z" fill="#0A0A0A"/>
<path d="M426.085 271.31C424.315 279.26 419.285 285 413.685 290.57C373.345 330.73 333.115 370.99 292.885 411.26C285.025 419.13 275.975 422.14 265.145 418.8C260.875 417.48 256.395 414.26 253.115 410.1C254.115 409.29 255.255 408.52 256.215 407.56C301.435 362.38 346.595 317.14 391.895 272.04C397.875 266.08 400.715 259.39 400.675 250.93C400.515 214.12 400.625 177.3 400.635 140.49C400.635 139.04 400.635 137.58 400.635 136.18C408.165 135 417.985 140.22 422.195 147.82C423.865 150.82 424.815 154.22 426.095 157.44V271.3L426.085 271.31Z" fill="#3650DC"/>
<path d="M343 156C343 167.046 334.046 176 323 176C311.954 176 303 167.046 303 156C303 144.954 311.954 136 323 136C334.046 136 343 144.954 343 156Z" fill="white"/>
</g>
</svg>
