<svg id="Layer_2" data-name="Layer 2" xmlns="http://www.w3.org/2000/svg" viewBox="0 0 302.75 302.75">
    <defs>
        <style>
            .cls-1 {
            fill: url(#linear-gradient);
            }

            .cls-2 {
            fill: #fff;
            }
        </style>
        <linearGradient id="linear-gradient" x1="27.05" y1="27.05" x2="275.7" y2="275.7" gradientUnits="userSpaceOnUse">
            <stop offset="0" stop-color="#3650dc"/>
            <stop offset=".02" stop-color="#354fd6"/>
            <stop offset=".1" stop-color="#324bc4"/>
            <stop offset=".19" stop-color="#3049b8"/>
            <stop offset=".28" stop-color="#3049b5"/>
            <stop offset=".67" stop-color="#182456"/>
            <stop offset=".89" stop-color="#0b0f1e"/>
            <stop offset="1" stop-color="#0b0b0b"/>
        </linearGradient>
    </defs>
    <g id="Translate_icons">
        <rect class="cls-1" width="302.75" height="302.75" rx="92.36" ry="92.36"/>
        <g>
            <g>
                <path class="cls-2" d="m67.37,236.93c-.75,0-1.5-.19-2.18-.56-1.5-.82-2.41-2.38-2.37-4.09l.51-24.06c-12.94-1.98-22.77-13.22-22.77-26.54v-42.38c0-14.8,12.04-26.84,26.84-26.84h75.88c14.8,0,26.84,12.04,26.84,26.84v42.38c0,14.8-12.04,26.84-26.84,26.84h-29.07c-2.08,0-4.09.61-5.81,1.77l-38.49,25.85c-.77.52-1.65.78-2.54.78Zm.03-116.47c-10.39,0-18.84,8.45-18.84,18.84v42.38c0,9.89,7.72,18.15,17.58,18.8,3,.2,5.29,2.71,5.23,5.71l-.41,19.62,32.99-22.16c3.05-2.05,6.6-3.13,10.27-3.13h29.07c10.39,0,18.84-8.45,18.84-18.84v-42.38c0-10.39-8.45-18.84-18.84-18.84h-75.88Z"/>
                <path class="cls-2" d="m235.39,194.3c-.89,0-1.77-.26-2.54-.78l-38.49-25.86c-1.72-1.16-3.73-1.77-5.81-1.77h-26.34v-26.6c0-10.39-8.45-18.84-18.84-18.84h-10.73v-23.78c0-14.8,12.04-26.84,26.84-26.84h75.88c14.8,0,26.84,12.04,26.84,26.84v42.38c0,13.32-9.83,24.56-22.77,26.54l.51,24.06c.04,1.7-.87,3.27-2.37,4.09-.69.38-1.44.56-2.19.56Zm-65.18-36.4h18.34c3.67,0,7.23,1.08,10.27,3.13l32.98,22.16-.41-19.62c-.07-3,2.23-5.51,5.23-5.71,9.86-.65,17.58-8.91,17.58-18.8v-42.38c0-10.39-8.45-18.84-18.84-18.84h-75.88c-10.39,0-18.84,8.45-18.84,18.84v15.78h2.73c14.8,0,26.84,12.04,26.84,26.84v18.6Z"/>
            </g>
            <path class="cls-2" d="m113.76,176.06h-16.91l-2.71,8h-11.55l16.39-45.29h12.77l16.39,45.29h-11.68l-2.71-8Zm-2.84-8.52l-5.61-16.58-5.55,16.58h11.16Z"/>
            <g>
                <rect class="cls-2" x="172.79" y="100.68" width="50" height="8"/>
                <path class="cls-2" d="m176.09,145.15l-2.27-7.67c34.89-10.31,34.31-31.67,34.27-32.57l7.99-.47c.07,1.16,1.33,28.51-39.99,40.72Z"/>
                <path class="cls-2" d="m212.86,142.53c-28.07-8.59-32.5-36.09-32.67-37.26l7.91-1.2c.15.97,3.95,23.72,27.1,30.8l-2.34,7.65Z"/>
                <rect class="cls-2" x="195.55" y="94.42" width="7" height="10.61" transform="translate(-22.44 77.15) rotate(-20.79)"/>
            </g>
        </g>
    </g>
</svg>