<svg width="243" height="243" viewBox="0 0 243 243" fill="none" xmlns="http://www.w3.org/2000/svg">
    <path fill-rule="evenodd" clip-rule="evenodd" d="M195 96C221.51 96 243 74.5097 243 48C243 21.4903 221.51 0 195 0C168.49 0 147 21.4903 147 48C147 74.5097 168.49 96 195 96ZM190.233 49.5595L197.102 56.3478L195.047 61.865L186.636 53.454L173.114 66.9765L169.273 63.1361L183.039 49.5595C179.658 45.8003 176.954 41.6353 174.98 37.227H180.389C182.038 40.4454 184.121 43.5014 186.636 46.2871C190.53 41.9599 193.397 37.0106 195.209 31.791H165V26.409H183.932V21H189.34V26.409H208.272V31.818H200.348C198.319 38.3609 194.896 44.3861 190.314 49.4784L190.233 49.5595ZM206.92 42.636H212.329L224.499 75.09H219.09L216.034 66.9765H203.188L200.159 75.09H194.75L206.92 42.636ZM209.624 49.857L205.243 61.5675H214.006L209.624 49.857Z" fill="#3650DC"/>
    <path fill-rule="evenodd" clip-rule="evenodd" d="M201 126V105.244C204.41 104.895 207.785 104.244 211.087 103.295V226.919C211.087 231.117 209.419 235.144 206.45 238.113C203.481 241.082 199.454 242.75 195.256 242.75H15.8315C11.6327 242.75 7.60594 241.082 4.63695 238.113C1.66796 235.144 0 231.117 0 226.919V47.4946C0 43.2958 1.66796 39.269 4.63695 36.3C7.60594 33.331 11.6327 31.6631 15.8315 31.6631H139.455C138.668 34.4036 138.087 37.1903 137.713 40.0001H17C13.6863 40.0001 11 42.6864 11 46.0001V76.0001C11 79.3138 13.6863 82.0001 17 82.0001H148.501C148.634 82.1806 148.768 82.3603 148.904 82.5394C150.932 85.225 153.184 87.7199 155.631 90.0001H17C13.6863 90.0001 11 92.6864 11 96.0001V126C11 129.314 13.6863 132 17 132H195C198.314 132 201 129.314 201 126ZM198.987 230.65C199.977 229.66 200.533 228.318 200.533 226.919V195.256C200.533 193.856 199.977 192.514 198.987 191.524C197.997 190.534 196.655 189.978 195.256 189.978H15.8315C14.4319 189.978 13.0897 190.534 12.1 191.524C11.1103 192.514 10.5544 193.856 10.5544 195.256V226.919C10.5544 228.318 11.1103 229.66 12.1 230.65C13.0897 231.64 14.4319 232.196 15.8315 232.196H195.256C196.655 232.196 197.997 231.64 198.987 230.65ZM17 140C13.6863 140 11 142.686 11 146V176C11 179.314 13.6863 182 17 182H195C198.314 182 201 179.314 201 176V146C201 142.686 198.314 140 195 140H17Z" fill="black"/>
</svg>
